<svg width="159" height="31" viewBox="0 0 159 31" fill="none" xmlns="http://www.w3.org/2000/svg">
<path d="M0.402255 6.19412V1.18807H23.9882V6.19412H15.196V29.9062H9.19439V6.19412H0.402255ZM68.3519 15.5472C68.3519 18.6789 67.7583 21.3431 66.571 23.54C65.3931 25.7369 63.7852 27.4149 61.7473 28.5741C59.7187 29.724 57.4377 30.2989 54.9043 30.2989C52.3522 30.2989 50.0618 29.7193 48.0332 28.5601C46.0046 27.4009 44.4014 25.7229 43.2235 23.526C42.0456 21.3291 41.4566 18.6695 41.4566 15.5472C41.4566 12.4155 42.0456 9.75117 43.2235 7.55431C44.4014 5.35744 46.0046 3.68408 48.0332 2.53423C50.0618 1.37504 52.3522 0.795436 54.9043 0.795436C57.4377 0.795436 59.7187 1.37504 61.7473 2.53423C63.7852 3.68408 65.3931 5.35744 66.571 7.55431C67.7583 9.75117 68.3519 12.4155 68.3519 15.5472ZM62.196 15.5472C62.196 13.5186 61.8922 11.8078 61.2845 10.4149C60.6862 9.022 59.8402 7.96563 58.7464 7.24581C57.6527 6.52599 56.372 6.16607 54.9043 6.16607C53.4366 6.16607 52.1558 6.52599 51.0621 7.24581C49.9683 7.96563 49.1176 9.022 48.51 10.4149C47.9117 11.8078 47.6125 13.5186 47.6125 15.5472C47.6125 17.5758 47.9117 19.2865 48.51 20.6794C49.1176 22.0723 49.9683 23.1287 51.0621 23.8485C52.1558 24.5683 53.4366 24.9282 54.9043 24.9282C56.372 24.9282 57.6527 24.5683 58.7464 23.8485C59.8402 23.1287 60.6862 22.0723 61.2845 20.6794C61.8922 19.2865 62.196 17.5758 62.196 15.5472ZM98.4301 29.9062H88.2497V1.18807H98.5142C101.403 1.18807 103.89 1.76299 105.974 2.91284C108.059 4.05334 109.662 5.69398 110.784 7.83476C111.915 9.97553 112.481 12.537 112.481 15.5191C112.481 18.5106 111.915 21.0814 110.784 23.2315C109.662 25.3816 108.05 27.0316 105.946 28.1815C103.852 29.3313 101.347 29.9062 98.4301 29.9062ZM94.3215 24.7039H98.1777C99.9726 24.7039 101.482 24.386 102.707 23.7504C103.941 23.1053 104.866 22.1097 105.483 20.7635C106.11 19.408 106.423 17.6599 106.423 15.5191C106.423 13.397 106.11 11.6629 105.483 10.3167C104.866 8.97058 103.946 7.97966 102.721 7.34397C101.496 6.70828 99.9866 6.39043 98.1917 6.39043H94.3215V24.7039ZM158.769 15.5472C158.769 18.6789 158.175 21.3431 156.988 23.54C155.81 25.7369 154.202 27.4149 152.164 28.5741C150.136 29.724 147.855 30.2989 145.321 30.2989C142.769 30.2989 140.479 29.7193 138.45 28.5601C136.422 27.4009 134.818 25.7229 133.641 23.526C132.463 21.3291 131.874 18.6695 131.874 15.5472C131.874 12.4155 132.463 9.75117 133.641 7.55431C134.818 5.35744 136.422 3.68408 138.45 2.53423C140.479 1.37504 142.769 0.795436 145.321 0.795436C147.855 0.795436 150.136 1.37504 152.164 2.53423C154.202 3.68408 155.81 5.35744 156.988 7.55431C158.175 9.75117 158.769 12.4155 158.769 15.5472ZM152.613 15.5472C152.613 13.5186 152.309 11.8078 151.702 10.4149C151.103 9.022 150.257 7.96563 149.164 7.24581C148.07 6.52599 146.789 6.16607 145.321 6.16607C143.854 6.16607 142.573 6.52599 141.479 7.24581C140.385 7.96563 139.535 9.022 138.927 10.4149C138.329 11.8078 138.03 13.5186 138.03 15.5472C138.03 17.5758 138.329 19.2865 138.927 20.6794C139.535 22.0723 140.385 23.1287 141.479 23.8485C142.573 24.5683 143.854 24.9282 145.321 24.9282C146.789 24.9282 148.07 24.5683 149.164 23.8485C150.257 23.1287 151.103 22.0723 151.702 20.6794C152.309 19.2865 152.613 17.5758 152.613 15.5472Z" fill="white"/>
</svg>
